<mxfile host="65bd71144e">
    <diagram id="UtVl3G7IWujilWPuT0xP" name="Page-1">
        <mxGraphModel dx="1216" dy="825" grid="1" gridSize="10" guides="1" tooltips="1" connect="1" arrows="1" fold="1" page="1" pageScale="1" pageWidth="850" pageHeight="1100" math="0" shadow="0">
            <root>
                <mxCell id="0"/>
                <mxCell id="1" parent="0"/>
                <mxCell id="13" value="" style="rounded=1;whiteSpace=wrap;html=1;strokeColor=#1600bd;fillColor=#f4f4f5;" vertex="1" parent="1">
                    <mxGeometry x="180" y="120" width="430" height="410" as="geometry"/>
                </mxCell>
                <mxCell id="14" value="" style="rounded=1;whiteSpace=wrap;html=1;fillColor=#030881;fontColor=#ffffff;strokeColor=none;" vertex="1" parent="1">
                    <mxGeometry x="220" y="450" width="340" height="50" as="geometry"/>
                </mxCell>
                <mxCell id="15" value="" style="rounded=1;whiteSpace=wrap;html=1;fillColor=#0e049f;fontColor=#000000;strokeColor=none;" vertex="1" parent="1">
                    <mxGeometry x="220" y="390" width="340" height="50" as="geometry"/>
                </mxCell>
                <mxCell id="16" value="" style="rounded=1;whiteSpace=wrap;html=1;fillColor=#2805d6;fontColor=#000000;strokeColor=#1600bd;" vertex="1" parent="1">
                    <mxGeometry x="220" y="330" width="340" height="50" as="geometry"/>
                </mxCell>
                <mxCell id="17" value="" style="rounded=1;whiteSpace=wrap;html=1;fillColor=#3e44f9;fontColor=#ffffff;strokeColor=#006EAF;" vertex="1" parent="1">
                    <mxGeometry x="220" y="270" width="340" height="50" as="geometry"/>
                </mxCell>
                <mxCell id="18" value="" style="rounded=1;whiteSpace=wrap;html=1;rotation=15;" vertex="1" parent="1">
                    <mxGeometry x="240" y="170" width="330" height="50" as="geometry"/>
                </mxCell>
            </root>
        </mxGraphModel>
    </diagram>
</mxfile>